#!OML:ASF E:\emotionWalksFemale\Project 1\Capture day 1\Session 1\Female1.ASF
:FULLY-SPECIFIED
:DEGREES
2017
root 9.49266 15.0388 40.7497 -177.859 -1.33919 -175.791
lowerback 7.90897 -1.93503 -1.18703
upperback -3.74386 -2.95471 -1.68876
thorax -8.43264 -1.46612 -0.667731
lowerneck -3.60644 -3.59109 -8.13517
upperneck 5.09267 -4.80814 9.74308
head 2.53069 -2.22609 4.1032
rclavicle 4.70623e-014 2.06736e-014
rhumerus -39.2991 60.2421 -126.247
rradius 45.4757
rwrist 13.3824
rhand 1.65893 -51.5319
rfingers 7.12502
rthumb 27.1784 -799.595
lclavicle 4.70623e-014 2.06736e-014
lhumerus -50.2137 -64.7363 143.874
lradius 105.021
lwrist 33.6641
lhand 25.8278 -20.0928
lfingers 7.12502
lthumb 49.9201 1.17178
rfemur -11.4284 20.3408 24.7774
rtibia 32.3434
rfoot -21.8368 -1.97313
rtoes -6.81045
lfemur -16.0907 -10.9311 -14.8562
ltibia 38.3119
lfoot -28.1496 8.41521
ltoes -33.6717
2018
root 9.44937 15.0392 40.7567 -177.809 -0.936221 -175.909
lowerback 7.98076 -1.84546 -1.2134
upperback -3.63042 -2.83356 -1.71485
thorax -8.35091 -1.405 -0.698304
lowerneck -3.70349 -3.55767 -7.89647
upperneck 4.83469 -4.75091 9.5858
head 2.45572 -2.19981 4.01733
rclavicle -2.5345e-015 4.77083e-015
rhumerus -38.4284 60.269 -125.592
rradius 45.3838
rwrist 13.6864
rhand 0.957806 -51.4899
rfingers 7.12502
rthumb 26.5075 -799.656
lclavicle -2.5345e-015 4.77083e-015
lhumerus -50.42 -64.9982 144.092
lradius 104.972
lwrist 33.5023
lhand 26.225 -20.2358
lfingers 7.12502
lthumb 50.2834 0.836881
rfemur -11.7201 20.1416 24.4734
rtibia 32.6848
rfoot -21.9822 -1.70429
rtoes -7.64869
lfemur -15.9897 -10.7807 -15.1754
ltibia 38.1359
lfoot -28.0964 8.59308
ltoes -33.4452
2019
root 9.40828 15.0403 40.7578 -177.955 -0.52698 -176
lowerback 8.05582 -1.67381 -1.17073
upperback -3.34885 -2.59036 -1.80624
thorax -8.09496 -1.28923 -0.857136
lowerneck -4.46678 -3.70186 -7.41722
upperneck 4.98867 -4.92623 9.31061
head 2.62465 -2.26642 3.8333
rclavicle -5.06901e-015 6.36111e-014
rhumerus -37.1618 60.1605 -124.476
rradius 45.265
rwrist 13.7544
rhand -0.542755 -51.2983
rfingers 7.12502
rthumb 25.0704 -799.673
lclavicle -5.06901e-015 6.36111e-014
lhumerus -51.2516 -65.7782 144.673
lradius 105.008
lwrist 33.4222
lhand 25.394 -20.6213
lfingers 7.12502
lthumb 49.5227 0.848481
rfemur -11.7472 19.9629 24.3363
rtibia 33.0295
rfoot -22.0853 -1.7819
rtoes -9.47622
lfemur -15.5641 -10.5001 -15.4881
ltibia 37.8391
lfoot -28.1089 8.44649
ltoes -32.3294
2020
root 9.36453 15.0393 40.7532 -178.058 -0.00460545 -176.284
lowerback 7.74189 -1.80326 -1.59131
upperback -3.45876 -2.64027 -1.60151
thorax -7.99991 -1.2221 -0.415966
lowerneck -2.76212 -3.33665 -7.73196
upperneck 4.13264 -4.46536 9.12674
head 2.05301 -2.10228 3.87881
rclavicle 2.45499e-014 7.95139e-015
rhumerus -39.2881 61.0463 -126.283
rradius 45.4946
rwrist 13.1687
rhand -0.916396 -51.5178
rfingers 7.12502
rthumb 24.7123 -799.942
lclavicle 2.45499e-014 7.95139e-015
lhumerus -50.9716 -65.0034 144.783
lradius 104.997
lwrist 33.3101
lhand 24.6374 -20.2768
lfingers 7.12502
lthumb 48.828 1.54019
rfemur -11.7891 20.1643 23.9514
rtibia 33.3141
rfoot -22.2107 -2.01602
rtoes -10.6351
lfemur -15.1631 -9.79124 -16.028
ltibia 37.546
lfoot -28.0433 8.57304
ltoes -32.7948
2021
root 9.31441 15.046 40.7418 -178.29 0.70506 -177.031
lowerback 7.74431 -1.7397 -1.94928
upperback -3.24807 -2.60249 -1.88996
thorax -7.77366 -1.19309 -0.527674
lowerneck -3.17037 -3.20818 -7.55943
upperneck 4.15343 -4.27507 9.01485
head 2.10391 -1.99922 3.81702
rclavicle -2.98177e-015 -6.36111e-015
rhumerus -38.9283 60.5418 -125.869
rradius 45.5366
rwrist 14.48
rhand -1.53634 -51.4994
rfingers 7.12502
rthumb 24.118 -800.003
lclavicle -2.98177e-015 -6.36111e-015
lhumerus -50.3845 -65.2246 144.122
lradius 105.069
lwrist 33.4087
lhand 24.5165 -20.1413
lfingers 7.12502
lthumb 48.7169 1.72994
rfemur -11.6489 20.5899 23.0682
rtibia 33.5705
rfoot -22.4082 -1.96029
rtoes -9.62837
lfemur -14.4205 -10.31 -17.2715
ltibia 37.1923
lfoot -28.2544 9.98523
ltoes -33.8889
2022
root 9.27298 15.0497 40.744 -178.183 1.12454 -177.084
lowerback 7.68684 -1.78196 -1.75234
upperback -3.27304 -2.64059 -1.99524
thorax -7.7813 -1.22309 -0.744984
lowerneck -3.04212 -2.99993 -7.46243
upperneck 3.78392 -3.97593 8.91335
head 2.1598 -1.86871 4.20447
rclavicle -1.43622e-014 -7.95139e-015
rhumerus -37.9787 60.7187 -125.425
rradius 45.1658
rwrist 15.9399
rhand -1.091 -51.3412
rfingers 7.12502
rthumb 24.545 -799.788
lclavicle -1.43622e-014 -7.95139e-015
lhumerus -50.562 -65.2113 143.975
lradius 105.031
lwrist 33.4794
lhand 25.3179 -20.5747
lfingers 7.12502
lthumb 49.4528 0.930669
rfemur -11.9587 20.6518 22.8601
rtibia 33.7952
rfoot -22.3114 -1.91807
rtoes -6.38798
lfemur -14.3342 -10.4197 -17.5296
ltibia 36.9375
lfoot -28.2058 10.6587
ltoes -34.6588
2023
root 9.23433 15.0517 40.7487 -178.07 1.50388 -177.195
lowerback 7.66924 -2.0611 -1.46143
upperback -3.21568 -2.98951 -2.14492
thorax -7.73464 -1.41212 -1.01708
lowerneck -3.41436 -2.63769 -7.43503
upperneck 3.89623 -3.49644 9.50883
head 2.00907 -1.58879 3.97382
rclavicle 7.40473e-015 5.88403e-014
rhumerus -37.5183 62.2129 -125.795
rradius 45.265
rwrist 14.5855
rhand -0.859152 -51.7707
rfingers 7.12502
rthumb 24.7672 -800.187
lclavicle 7.40473e-015 5.88403e-014
lhumerus -49.3859 -64.9962 142.262
lradius 105.175
lwrist 33.9713
lhand 26.6971 -20.1373
lfingers 7.12502
lthumb 50.7146 0.701992
rfemur -12.2762 20.4371 22.6288
rtibia 34.052
rfoot -22.1138 -2.26096
rtoes -5.15139
lfemur -14.2733 -10.1764 -17.8049
ltibia 36.6593
lfoot -28.023 10.6307
ltoes -34.2263
2024
root 9.19523 15.0579 40.754 -177.905 1.89318 -177.243
lowerback 7.52912 -2.09086 -1.29595
upperback -3.16306 -3.01079 -2.2328
thorax -7.61099 -1.43375 -1.20469
lowerneck -3.30161 -2.49849 -7.17977
upperneck 3.47284 -3.28522 9.06238
head 2.03625 -1.51105 4.22253
rclavicle -4.89507e-014 2.06736e-014
rhumerus -36.3314 61.5573 -124.861
rradius 45.765
rwrist 13.1018
rhand 2.23523 -53.3226
rfingers 7.12502
rthumb 27.7295 -801.298
lclavicle -4.89507e-014 2.06736e-014
lhumerus -49.1554 -65.2008 141.855
lradius 105.15
lwrist 34.3796
lhand 27.5864 -19.6491
lfingers 7.12502
lthumb 51.5245 0.734822
rfemur -12.6113 20.2445 22.4802
rtibia 34.2312
rfoot -21.9056 -2.91183
rtoes -6.80422
lfemur -14.3467 -9.90121 -18.0081
ltibia 36.544
lfoot -27.8224 10.0699
ltoes -32.1443
2025
root 9.15711 15.0644 40.7567 -177.847 2.28371 -177.502
lowerback 7.38578 -2.14165 -1.41815
upperback -3.00064 -3.08953 -2.46204
thorax -7.36275 -1.47061 -1.37393
lowerneck -3.56252 -2.36461 -6.29066
upperneck 3.28781 -3.10818 8.73642
head 1.97448 -1.41018 3.93127
rclavicle -3.15571e-014 3.81667e-014
rhumerus -35.8753 61.774 -124.796
rradius 45.8722
rwrist 13.6153
rhand 2.63269 -53.6995
rfingers 7.12502
rthumb 28.1095 -801.613
lclavicle -3.15571e-014 3.81667e-014
lhumerus -48.7181 -65.5307 141.211
lradius 105.072
lwrist 34.4586
lhand 27.3881 -19.5113
lfingers 7.12502
lthumb 51.3441 0.976005
rfemur -12.8447 20.18 22.1449
rtibia 34.4402
rfoot -21.8821 -3.39697
rtoes -7.50561
lfemur -14.2702 -9.87083 -18.4846
ltibia 36.4051
lfoot -28.1066 11.1177
ltoes -34.6235
2026
root 9.11926 15.0623 40.7601 -178.068 2.59098 -177.445
lowerback 7.41728 -2.14273 -0.927477
upperback -2.70216 -3.04927 -2.69174
thorax -7.10158 -1.4814 -1.898
lowerneck -3.68707 -2.36223 -5.8846
upperneck 3.04522 -3.10017 8.7086
head 1.90548 -1.39796 3.83903
rclavicle 8.12532e-015 -2.8625e-014
rhumerus -34.7785 61.6636 -124.136
rradius 45.7794
rwrist 14.1573
rhand 2.29982 -53.7351
rfingers 7.12502
rthumb 27.7913 -801.7
lclavicle 8.12532e-015 -2.8625e-014
lhumerus -48.9874 -66.1521 140.989
lradius 105.188
lwrist 34.4778
lhand 26.9072 -19.6724
lfingers 7.12502
lthumb 50.9061 1.0612
rfemur -12.7169 20.0788 22.2768
rtibia 34.6233
rfoot -21.9281 -3.65815
rtoes -6.18856
lfemur -13.9115 -9.88958 -18.6501
ltibia 36.295
lfoot -28.3274 11.7415
ltoes -35.5881
2027
root 9.08284 15.0641 40.7672 -178.021 2.88436 -177.505
lowerback 7.40532 -2.07969 -1.11561
upperback -2.66284 -2.97901 -2.53825
thorax -7.03163 -1.43765 -1.64123
lowerneck -3.31233 -2.34361 -5.93458
upperneck 2.62453 -3.06594 8.61001
head 1.69385 -1.39804 3.81336
rclavicle -3.92351e-014 2.70347e-014
rhumerus -34.494 61.5986 -123.546
rradius 45.8966
rwrist 14.8745
rhand 1.32911 -53.5191
rfingers 7.12502
rthumb 26.8628 -801.631
lclavicle -3.92351e-014 2.70347e-014
lhumerus -49.2493 -66.5675 141.311
lradius 105.345
lwrist 34.4369
lhand 26.7767 -19.4928
lfingers 7.12502
lthumb 50.7872 1.30664
rfemur -12.9258 19.8493 22.1894
rtibia 34.8025
rfoot -21.79 -4.04573
rtoes -5.12309
lfemur -13.8639 -10.0118 -18.883
ltibia 36.1751
lfoot -28.3667 12.1588
ltoes -35.7296
2028
root 9.05075 15.0694 40.773 -177.801 3.23583 -177.499
lowerback 7.31062 -1.90015 -1.10177
upperback -2.64566 -2.73262 -2.42222
thorax -6.94692 -1.31761 -1.56298
lowerneck -3.25568 -2.40423 -6.24693
upperneck 2.29031 -3.12403 8.75542
head 1.59021 -1.4329 3.92335
rclavicle 8.05078e-015 9.54166e-015
rhumerus -33.6268 61.2897 -122.363
rradius 45.837
rwrist 15.9417
rhand 0.638227 -52.762
rfingers 7.12502
rthumb 26.2015 -800.973
lclavicle 8.05078e-015 9.54166e-015
lhumerus -49.6441 -66.8054 142.297
lradius 105.186
lwrist 34.2683
lhand 27.0522 -19.2243
lfingers 7.12502
lthumb 51.0383 1.43571
rfemur -13.2574 19.8247 22.1666
rtibia 34.9408
rfoot -21.4829 -4.86139
rtoes -6.08106
lfemur -14.0016 -10.0355 -18.9871
ltibia 36.0822
lfoot -28.3654 12.6855
ltoes -36.1517
2029
root 9.02009 15.0729 40.7743 -177.746 3.57715 -177.447
lowerback 7.30332 -1.82478 -1.2053
upperback -2.62507 -2.63833 -2.27862
thorax -6.90635 -1.26614 -1.36686
lowerneck -3.21603 -2.30553 -6.24468
upperneck 2.09766 -2.98253 8.71824
head 1.50687 -1.36605 3.91302
rclavicle -1.0138e-014 2.70347e-014
rhumerus -33.4628 61.2396 -121.96
rradius 46.1277
rwrist 16.4381
rhand 1.13731 -53.308
rfingers 7.12502
rthumb 26.6793 -801.448
lclavicle -1.0138e-014 2.70347e-014
lhumerus -49.7863 -66.6958 142.828
lradius 104.987
lwrist 33.9943
lhand 27.0983 -19.3434
lfingers 7.12502
lthumb 51.0803 1.29309
rfemur -13.3963 20.0507 22.2595
rtibia 35.1373
rfoot -21.2828 -5.70367
rtoes -6.56007
lfemur -13.9393 -9.91998 -19.0663
ltibia 35.96
lfoot -28.1807 12.6523
ltoes -35.4311
2030
root 8.98661 15.0769 40.7761 -177.77 3.77539 -177.541
lowerback 7.4413 -1.29058 -0.766986
upperback -2.62458 -1.88706 -2.22269
thorax -6.98319 -0.91875 -1.6507
lowerneck -3.01339 -2.79723 -7.64187
upperneck 1.88903 -3.6101 9.20311
head 1.5062 -1.69519 4.34826
rclavicle 5.5287e-015 -9.54166e-015
rhumerus -31.5615 60.0471 -119.587
rradius 45.4375
rwrist 16.8449
rhand 2.29101 -53.4467
rfingers 7.12502
rthumb 27.7829 -801.413
lclavicle 5.5287e-015 -9.54166e-015
lhumerus -52.2105 -67.4612 146.461
lradius 104.832
lwrist 34.001
lhand 27.1122 -19.4879
lfingers 7.12502
lthumb 51.0929 1.14144
rfemur -13.5156 20.0116 22.1788
rtibia 35.349
rfoot -21.1093 -6.3323
rtoes -5.99557
lfemur -13.838 -9.73316 -19.3188
ltibia 35.8383
lfoot -27.7516 11.963
ltoes -33.3597
